<svg xmlns="http://www.w3.org/2000/svg" width="472" height="251" viewBox="0 0 472 250.61" shape-rendering="geometricPrecision" text-rendering="geometricPrecision" image-rendering="optimizeQuality" fill-rule="evenodd" clip-rule="evenodd"><defs><style>.fil1{fill:#2b5e5e}</style></defs><g id="Слой_x0020_1"><g id="_1502609165040"><path d="M174.89 203.07v6.72h-28.01v-36.18h27.33v6.72H155.2v7.85h16.79v6.51H155.2v8.38h19.69zm18.67-81.79h-46.45l10.5-18.36h25.35l-10.6-18.36h-46.25l10.5-18.37h25.14l-17.06-29.55-48.87 84.64H74.67L144.69 0l91.24 158.02h-21.16l-21.21-36.74zm-9.41 52.33l7.49 10.95 7.5-10.95h9.81l-12.04 17.31 13.03 18.87h-9.87l-8.43-11.99-8.32 11.99h-9.66l12.92-18.51-12.1-17.67h9.67zm59.19 0v36.18h-8.37v-14.84h-16.44v14.84h-8.37v-36.18h8.37v14.26h16.44v-14.26h8.37zm22.65 36.79c-3.76 0-7.14-.8-10.16-2.42-3.01-1.62-5.37-3.85-7.08-6.7-1.7-2.84-2.56-6.03-2.56-9.58s.86-6.75 2.56-9.59c1.71-2.84 4.07-5.08 7.08-6.69 3.02-1.62 6.4-2.43 10.16-2.43 3.75 0 7.13.81 10.13 2.43 3 1.61 5.35 3.85 7.08 6.69 1.72 2.84 2.58 6.04 2.58 9.59s-.86 6.74-2.58 9.58c-1.73 2.85-4.08 5.08-7.08 6.7s-6.38 2.42-10.13 2.42zm0-7.13c2.13 0 4.06-.49 5.78-1.47 1.73-.98 3.08-2.35 4.06-4.11.98-1.76 1.48-3.76 1.48-5.99 0-2.24-.5-4.24-1.48-6-.98-1.76-2.33-3.13-4.06-4.11-1.72-.98-3.65-1.47-5.78-1.47-2.14 0-4.07.49-5.79 1.47-1.72.98-3.07 2.35-4.06 4.11-.98 1.76-1.47 3.76-1.47 6 0 2.23.49 4.23 1.47 5.99.99 1.76 2.34 3.13 4.06 4.11 1.72.98 3.65 1.47 5.79 1.47zm58.88-.31v14.32h-7.76v-7.49h-25.53v7.49h-7.75l.05-14.32h1.45c2.17-.07 3.7-1.65 4.6-4.75.89-3.1 1.44-7.53 1.65-13.28l.42-11.32h27.8v29.35h5.07zm-25.9-17.26c-.17 4.31-.53 7.91-1.09 10.83-.54 2.91-1.39 5.06-2.52 6.43h16.17v-22.53h-12.4l-.16 5.27zm45.13 24.7c-3.75 0-7.14-.8-10.15-2.42-3.02-1.62-5.38-3.85-7.08-6.7-1.71-2.84-2.56-6.03-2.56-9.58s.85-6.75 2.56-9.59c1.7-2.84 4.06-5.08 7.08-6.69 3.01-1.62 6.4-2.43 10.15-2.43 3.76 0 7.13.81 10.13 2.43 3 1.61 5.36 3.85 7.08 6.69 1.72 2.84 2.58 6.04 2.58 9.59s-.86 6.74-2.58 9.58c-1.72 2.85-4.08 5.08-7.08 6.7s-6.37 2.42-10.13 2.42zm0-7.13c2.14 0 4.07-.49 5.79-1.47 1.72-.98 3.08-2.35 4.06-4.11.98-1.76 1.47-3.76 1.47-5.99 0-2.24-.49-4.24-1.47-6-.98-1.76-2.34-3.13-4.06-4.11-1.72-.98-3.65-1.47-5.79-1.47-2.13 0-4.06.49-5.79 1.47-1.72.98-3.07 2.35-4.06 4.11-.98 1.76-1.47 3.76-1.47 6 0 2.23.49 4.23 1.47 5.99.99 1.76 2.34 3.13 4.06 4.11 1.73.98 3.66 1.47 5.79 1.47zm22.6-29.66h29.2v6.66h-20.88v7.44h10.02c4.38 0 7.72.92 10.01 2.75 2.29 1.82 3.43 4.46 3.43 7.9 0 3.62-1.27 6.43-3.82 8.43s-6.15 3-10.8 3H366.7v-36.18zm16.69 29.97c2.13 0 3.77-.42 4.91-1.26 1.14-.85 1.7-2.08 1.7-3.7 0-3.17-2.2-4.76-6.61-4.76h-8.37v9.72h8.37zm33.45-29.97c3.21 0 5.99.53 8.35 1.6 2.36 1.07 4.18 2.58 5.45 4.55 1.28 1.96 1.91 4.29 1.91 6.98 0 2.65-.63 4.96-1.91 6.94-1.27 1.99-3.09 3.5-5.45 4.56-2.36 1.05-5.14 1.57-8.35 1.57h-7.28v9.98h-8.38v-36.18h15.66zm-.46 19.38c2.51 0 4.42-.55 5.73-1.63 1.31-1.09 1.97-2.63 1.97-4.62 0-2.04-.66-3.6-1.97-4.68-1.31-1.09-3.22-1.63-5.73-1.63h-6.82v12.56h6.82zm35.82 17.41c-3.75 0-7.14-.8-10.15-2.42-3.01-1.62-5.37-3.85-7.08-6.7-1.7-2.84-2.56-6.03-2.56-9.58s.86-6.75 2.56-9.59c1.71-2.84 4.07-5.08 7.08-6.69 3.01-1.62 6.4-2.43 10.15-2.43 3.76 0 7.14.81 10.13 2.43 3 1.61 5.36 3.85 7.09 6.69 1.72 2.84 2.58 6.04 2.58 9.59s-.86 6.74-2.58 9.58c-1.73 2.85-4.09 5.08-7.09 6.7-2.99 1.62-6.37 2.42-10.13 2.42zm0-7.13c2.14 0 4.07-.49 5.79-1.47 1.73-.98 3.08-2.35 4.06-4.11.98-1.76 1.48-3.76 1.48-5.99 0-2.24-.5-4.24-1.48-6-.98-1.76-2.33-3.13-4.06-4.11-1.72-.98-3.65-1.47-5.79-1.47-2.13 0-4.06.49-5.78 1.47-1.73.98-3.08 2.35-4.06 4.11-.98 1.76-1.47 3.76-1.47 6 0 2.23.49 4.23 1.47 5.99.98 1.76 2.33 3.13 4.06 4.11 1.72.98 3.65 1.47 5.78 1.47zm-277.28-63.62v18.36h-46.3v92.6h-18.36v-92.6h-56.8l10.5-18.36h110.96zm-27.93 92.59l131.79.01 10.6 18.36H146.99v-18.37zm-55.34 18.37H0l42.72-73.99h21.15l-32.11 55.62h59.89v18.37z" fill="#333" fill-rule="nonzero"/><path class="fil1" d="M91.65 232.24H31.76l32.11-55.62H42.72L0 250.61h91.65z"/><path fill="#333" d="M74.67 121.28h21.15l48.87-84.64 17.06 29.55h-25.14l-10.5 18.37h46.25l10.6 18.36h-25.35l-10.5 18.36h46.45l21.21 36.74h21.16L144.69 0z"/><path class="fil1" d="M110.26 158.01v92.6h18.36v-92.6h46.3v-18.36H63.96l-10.5 18.36zm76.32 33.27l-11.69 16.75v1.76h8.43l8.32-11.99 8.43 11.99h9.87l-13.03-18.87 12.04-17.31h-9.81l-7.5 10.95-7.49-10.95h-9.67z"/><path class="fil1" d="M155.2 194.69h16.79v-6.51H155.2v-7.85h19.01v-6.72h-27.33v36.18h26.78l1.23-1.76v-4.96H155.2zm54.96-21.08v36.18h8.37v-14.84h16.44v14.84h8.37v-36.18h-8.37v14.26h-16.44v-14.26zm36.03 18.09c0 3.55.86 6.74 2.56 9.58 1.71 2.85 4.07 5.08 7.08 6.7 3.02 1.62 6.4 2.42 10.16 2.42 3.75 0 7.13-.8 10.13-2.42 3-1.62 5.35-3.85 7.08-6.7 1.72-2.84 2.58-6.03 2.58-9.58s-.86-6.75-2.58-9.59c-1.73-2.84-4.08-5.08-7.08-6.69-3-1.62-6.38-2.43-10.13-2.43-3.76 0-7.14.81-10.16 2.43-3.01 1.61-5.37 3.85-7.08 6.69-1.7 2.84-2.56 6.04-2.56 9.59zm14.01 10.1c-1.72-.98-3.07-2.35-4.06-4.11-.98-1.76-1.47-3.76-1.47-5.99 0-2.24.49-4.24 1.47-6 .99-1.76 2.34-3.13 4.06-4.11 1.72-.98 3.65-1.47 5.79-1.47 2.13 0 4.06.49 5.78 1.47 1.73.98 3.08 2.35 4.06 4.11.98 1.76 1.48 3.76 1.48 6 0 2.23-.5 4.23-1.48 5.99-.98 1.76-2.33 3.13-4.06 4.11-1.72.98-3.65 1.47-5.78 1.47-2.14 0-4.07-.49-5.79-1.47z"/></g></g></svg>