<?xml version="1.0" encoding="UTF-8"?>
<!DOCTYPE svg PUBLIC "-//W3C//DTD SVG 1.1//EN" "http://www.w3.org/Graphics/SVG/1.1/DTD/svg11.dtd">
<!-- Creator: CorelDRAW 2018 (64-Bit) -->
<svg xmlns="http://www.w3.org/2000/svg" xml:space="preserve" width="472px" height="251px" version="1.1" style="shape-rendering:geometricPrecision; text-rendering:geometricPrecision; image-rendering:optimizeQuality; fill-rule:evenodd; clip-rule:evenodd"
viewBox="0 0 472 250.61"
 xmlns:xlink="http://www.w3.org/1999/xlink">
 <defs>
  <style type="text/css">
   <![CDATA[
    .fil1 {fill:#2B5E5E}
    .fil2 {fill:#333333}
    .fil0 {fill:#333333;fill-rule:nonzero}
   ]]>
  </style>
 </defs>
 <g id="Слой_x0020_1">
  <metadata id="CorelCorpID_0Corel-Layer"/>
  <g id="_1502609165040">
   <path class="fil0" d="M174.89 203.07l0 6.72 -28.01 0 0 -36.18 27.33 0 0 6.72 -19.01 0 0 7.85 16.79 0 0 6.51 -16.79 0 0 8.38 19.69 0zm18.67 -81.79l-46.45 0 10.5 -18.36 25.35 0 -10.6 -18.36 -46.25 0 10.5 -18.37 25.14 0 -17.06 -29.55 -48.87 84.64 -21.15 0 70.02 -121.28 91.24 158.02 -21.16 0 -21.21 -36.74zm-9.41 52.33l7.49 10.95 7.5 -10.95 9.81 0 -12.04 17.31 13.03 18.87 -9.87 0 -8.43 -11.99 -8.32 11.99 -9.66 0 12.92 -18.51 -12.1 -17.67 9.67 0zm59.19 0l0 36.18 -8.37 0 0 -14.84 -16.44 0 0 14.84 -8.37 0 0 -36.18 8.37 0 0 14.26 16.44 0 0 -14.26 8.37 0zm22.65 36.79c-3.76,0 -7.14,-0.8 -10.16,-2.42 -3.01,-1.62 -5.37,-3.85 -7.08,-6.7 -1.7,-2.84 -2.56,-6.03 -2.56,-9.58 0,-3.55 0.86,-6.75 2.56,-9.59 1.71,-2.84 4.07,-5.08 7.08,-6.69 3.02,-1.62 6.4,-2.43 10.16,-2.43 3.75,0 7.13,0.81 10.13,2.43 3,1.61 5.35,3.85 7.08,6.69 1.72,2.84 2.58,6.04 2.58,9.59 0,3.55 -0.86,6.74 -2.58,9.58 -1.73,2.85 -4.08,5.08 -7.08,6.7 -3,1.62 -6.38,2.42 -10.13,2.42zm0 -7.13c2.13,0 4.06,-0.49 5.78,-1.47 1.73,-0.98 3.08,-2.35 4.06,-4.11 0.98,-1.76 1.48,-3.76 1.48,-5.99 0,-2.24 -0.5,-4.24 -1.48,-6 -0.98,-1.76 -2.33,-3.13 -4.06,-4.11 -1.72,-0.98 -3.65,-1.47 -5.78,-1.47 -2.14,0 -4.07,0.49 -5.79,1.47 -1.72,0.98 -3.07,2.35 -4.06,4.11 -0.98,1.76 -1.47,3.76 -1.47,6 0,2.23 0.49,4.23 1.47,5.99 0.99,1.76 2.34,3.13 4.06,4.11 1.72,0.98 3.65,1.47 5.79,1.47zm58.88 -0.31l0 14.32 -7.76 0 0 -7.49 -25.53 0 0 7.49 -7.75 0 0.05 -14.32 1.45 0c2.17,-0.07 3.7,-1.65 4.6,-4.75 0.89,-3.1 1.44,-7.53 1.65,-13.28l0.42 -11.32 27.8 0 0 29.35 5.07 0zm-25.9 -17.26c-0.17,4.31 -0.53,7.91 -1.09,10.83 -0.54,2.91 -1.39,5.06 -2.52,6.43l16.17 0 0 -22.53 -12.4 0 -0.16 5.27zm45.13 24.7c-3.75,0 -7.14,-0.8 -10.15,-2.42 -3.02,-1.62 -5.38,-3.85 -7.08,-6.7 -1.71,-2.84 -2.56,-6.03 -2.56,-9.58 0,-3.55 0.85,-6.75 2.56,-9.59 1.7,-2.84 4.06,-5.08 7.08,-6.69 3.01,-1.62 6.4,-2.43 10.15,-2.43 3.76,0 7.13,0.81 10.13,2.43 3,1.61 5.36,3.85 7.08,6.69 1.72,2.84 2.58,6.04 2.58,9.59 0,3.55 -0.86,6.74 -2.58,9.58 -1.72,2.85 -4.08,5.08 -7.08,6.7 -3,1.62 -6.37,2.42 -10.13,2.42zm0 -7.13c2.14,0 4.07,-0.49 5.79,-1.47 1.72,-0.98 3.08,-2.35 4.06,-4.11 0.98,-1.76 1.47,-3.76 1.47,-5.99 0,-2.24 -0.49,-4.24 -1.47,-6 -0.98,-1.76 -2.34,-3.13 -4.06,-4.11 -1.72,-0.98 -3.65,-1.47 -5.79,-1.47 -2.13,0 -4.06,0.49 -5.79,1.47 -1.72,0.98 -3.07,2.35 -4.06,4.11 -0.98,1.76 -1.47,3.76 -1.47,6 0,2.23 0.49,4.23 1.47,5.99 0.99,1.76 2.34,3.13 4.06,4.11 1.73,0.98 3.66,1.47 5.79,1.47zm22.6 -29.66l29.2 0 0 6.66 -20.88 0 0 7.44 10.02 0c4.38,0 7.72,0.92 10.01,2.75 2.29,1.82 3.43,4.46 3.43,7.9 0,3.62 -1.27,6.43 -3.82,8.43 -2.55,2 -6.15,3 -10.8,3l-17.16 0 0 -36.18zm16.69 29.97c2.13,0 3.77,-0.42 4.91,-1.26 1.14,-0.85 1.7,-2.08 1.7,-3.7 0,-3.17 -2.2,-4.76 -6.61,-4.76l-8.37 0 0 9.72 8.37 0zm33.45 -29.97c3.21,0 5.99,0.53 8.35,1.6 2.36,1.07 4.18,2.58 5.45,4.55 1.28,1.96 1.91,4.29 1.91,6.98 0,2.65 -0.63,4.96 -1.91,6.94 -1.27,1.99 -3.09,3.5 -5.45,4.56 -2.36,1.05 -5.14,1.57 -8.35,1.57l-7.28 0 0 9.98 -8.38 0 0 -36.18 15.66 0zm-0.46 19.38c2.51,0 4.42,-0.55 5.73,-1.63 1.31,-1.09 1.97,-2.63 1.97,-4.62 0,-2.04 -0.66,-3.6 -1.97,-4.68 -1.31,-1.09 -3.22,-1.63 -5.73,-1.63l-6.82 0 0 12.56 6.82 0zm35.82 17.41c-3.75,0 -7.14,-0.8 -10.15,-2.42 -3.01,-1.62 -5.37,-3.85 -7.08,-6.7 -1.7,-2.84 -2.56,-6.03 -2.56,-9.58 0,-3.55 0.86,-6.75 2.56,-9.59 1.71,-2.84 4.07,-5.08 7.08,-6.69 3.01,-1.62 6.4,-2.43 10.15,-2.43 3.76,0 7.14,0.81 10.13,2.43 3,1.61 5.36,3.85 7.09,6.69 1.72,2.84 2.58,6.04 2.58,9.59 0,3.55 -0.86,6.74 -2.58,9.58 -1.73,2.85 -4.09,5.08 -7.09,6.7 -2.99,1.62 -6.37,2.42 -10.13,2.42zm0 -7.13c2.14,0 4.07,-0.49 5.79,-1.47 1.73,-0.98 3.08,-2.35 4.06,-4.11 0.98,-1.76 1.48,-3.76 1.48,-5.99 0,-2.24 -0.5,-4.24 -1.48,-6 -0.98,-1.76 -2.33,-3.13 -4.06,-4.11 -1.72,-0.98 -3.65,-1.47 -5.79,-1.47 -2.13,0 -4.06,0.49 -5.78,1.47 -1.73,0.98 -3.08,2.35 -4.06,4.11 -0.98,1.76 -1.47,3.76 -1.47,6 0,2.23 0.49,4.23 1.47,5.99 0.98,1.76 2.33,3.13 4.06,4.11 1.72,0.98 3.65,1.47 5.78,1.47zm-277.28 -63.62l0 18.36 -46.3 0 0 66.55 0 7.68 0 18.37 -18.36 0 0 -92.6 -56.8 0 10.5 -18.36 110.96 0zm-27.93 92.59l131.79 0.01 10.6 18.36 -142.39 0 0 -18.37zm-55.34 18.37l-91.65 0 42.72 -73.99 21.15 0 -32.11 55.62 59.89 0 0 18.37z"/>
   <polygon class="fil1" points="91.65,232.24 31.76,232.24 63.87,176.62 42.72,176.62 0,250.61 91.65,250.61 "/>
   <polygon class="fil2" points="74.67,121.28 95.82,121.28 144.69,36.64 161.75,66.19 136.61,66.19 126.11,84.56 172.36,84.56 182.96,102.92 157.61,102.92 147.11,121.28 193.56,121.28 214.77,158.02 235.93,158.02 144.69,0 "/>
   <polygon class="fil1" points="110.26,158.01 110.26,250.61 128.62,250.61 128.62,232.24 128.62,224.56 128.62,158.01 174.92,158.01 174.92,139.65 63.96,139.65 53.46,158.01 "/>
   <polygon class="fil1" points="186.58,191.28 174.89,208.03 174.89,209.79 183.32,209.79 191.64,197.8 200.07,209.79 209.94,209.79 196.91,190.92 208.95,173.61 199.14,173.61 191.64,184.56 184.15,173.61 174.48,173.61 "/>
   <polygon class="fil1" points="155.2,194.69 171.99,194.69 171.99,188.18 155.2,188.18 155.2,180.33 174.21,180.33 174.21,173.61 146.88,173.61 146.88,209.79 173.66,209.79 174.89,208.03 174.89,203.07 155.2,203.07 "/>
   <polygon class="fil1" points="210.16,173.61 210.16,209.79 218.53,209.79 218.53,194.95 234.97,194.95 234.97,209.79 243.34,209.79 243.34,173.61 234.97,173.61 234.97,187.87 218.53,187.87 218.53,173.61 "/>
   <path class="fil1" d="M246.19 191.7c0,3.55 0.86,6.74 2.56,9.58 1.71,2.85 4.07,5.08 7.08,6.7 3.02,1.62 6.4,2.42 10.16,2.42 3.75,0 7.13,-0.8 10.13,-2.42 3,-1.62 5.35,-3.85 7.08,-6.7 1.72,-2.84 2.58,-6.03 2.58,-9.58 0,-3.55 -0.86,-6.75 -2.58,-9.59 -1.73,-2.84 -4.08,-5.08 -7.08,-6.69 -3,-1.62 -6.38,-2.43 -10.13,-2.43 -3.76,0 -7.14,0.81 -10.16,2.43 -3.01,1.61 -5.37,3.85 -7.08,6.69 -1.7,2.84 -2.56,6.04 -2.56,9.59zm14.01 10.1c-1.72,-0.98 -3.07,-2.35 -4.06,-4.11 -0.98,-1.76 -1.47,-3.76 -1.47,-5.99 0,-2.24 0.49,-4.24 1.47,-6 0.99,-1.76 2.34,-3.13 4.06,-4.11 1.72,-0.98 3.65,-1.47 5.79,-1.47 2.13,0 4.06,0.49 5.78,1.47 1.73,0.98 3.08,2.35 4.06,4.11 0.98,1.76 1.48,3.76 1.48,6 0,2.23 -0.5,4.23 -1.48,5.99 -0.98,1.76 -2.33,3.13 -4.06,4.11 -1.72,0.98 -3.65,1.47 -5.78,1.47 -2.14,0 -4.07,-0.49 -5.79,-1.47z"/>
  </g>
 </g>
</svg>
